<svg xmlns="http://www.w3.org/2000/svg" viewBox="0 0 1024 1024">
  <path fill="currentColor" d="M608 42.7c52.3 0 145.5 58 149.2 154l.1 6v138.6h125.9l5.9.2a78.1 78.1 0 0 1 71.1 91.4l-.8 4L857 882.6a70.4 70.4 0 0 1-64.9 56l-4 .1H262.4a27.7 27.7 0 0 1-27.6-24.9l-.1-2.9V402.8a70.4 70.4 0 0 1 40.1-63.6l3.9-1.7 16.9-6.9 31-12.8 27-11.4 23.1-10.1 10.1-4.5 13.2-6.2 7.6-3.8c27.9-13.9 41.6-38.6 53.9-68l6.5-16 4.4-11a123.1 123.1 0 0 0 2.4-6.5l1.1-3.7 2.4-8.1 7.1-27.7C504 73.9 554.7 42.7 608 42.7ZM135.5 405.3c11.9 0 16.5 1.3 21 3.7 4.5 2.5 8 6 10.5 10.5 2.4 4.5 3.7 9.1 3.7 21v463c0 11.9-1.3 16.5-3.7 21-2.5 4.5-6 8-10.5 10.5-4.5 2.4-9.1 3.7-21 3.7h-15c-11.9 0-16.5-1.3-21-3.7A25.2 25.2 0 0 1 89 924.5c-2.4-4.5-3.7-9.1-3.7-21v-463c0-11.9 1.3-16.5 3.7-21 2.5-4.5 6-8 10.5-10.5 4.5-2.4 9.1-3.7 21-3.7h15Z"/>
</svg>