<svg xmlns="http://www.w3.org/2000/svg" viewBox="0 0 705 188">
  <path fill="#4892CF" d="M64.125 67.685H31.178l-1.373 14.826L25 136.875h32.261c9.06 0 32.261-8.237 32.261-39.263 0-14.002-8.923-29.927-25.397-29.927ZM53.416 122.05h-7.412l3.569-39.538h7.688c4.392 0 12.492 4.668 12.492 16.749 0 12.08-6.864 22.788-16.337 22.788v.001Z"/>
  <path fill="url(#a)" d="M29.805 82.512h19.768l-4.805 54.363H25l4.805-54.363Z"/>
  <path fill="#4892CF" d="M142.058 66.696c-20.18 0-37.89 15.924-39.674 35.556-.137.96-.137 1.785-.137 2.746-.138 18.396 14.276 32.809 33.633 32.809 20.18 0 37.889-15.924 39.674-35.556 1.647-19.63-13.317-35.555-33.496-35.555Zm13.178 35.556c-.96 11.394-9.198 20.729-18.258 20.729-8.511 0-14.689-8.1-14.689-18.533v-.823c0-.411 0-.961.137-1.511.961-11.394 9.198-20.728 18.259-20.728 9.06 0 15.513 9.472 14.551 20.866Z"/>
  <path fill="url(#a)" d="m122.289 104.586-20.043.412v-.138c1.373-14.14 15.513-29.103 38.439-23.337-9.061 0-17.16 9.335-18.258 20.729 0 .549 0 .961-.138 1.51v.824s0-.137 0 0Z"/>
  <path fill="#4892CF" d="M228.012 66.696c7.825 0 14.552 2.472 19.632 6.59l-1.648 18.807c-5.354-3.569-12.63-7.275-19.769-7.275h-.548c-11.669.274-18.259 9.884-18.259 19.494v.411c.138 4.805 2.883 15.238 15.787 15.238 6.864 0 14.827-3.569 21.005-7.138l-1.648 18.67c-5.766 4.118-12.905 6.452-20.73 6.452-20.729 0-33.907-14.414-33.634-32.81v-.137c0-.824 0-1.784.138-2.609 1.785-19.767 17.984-35.693 39.674-35.693Z"/>
  <path fill="url(#a)" d="M207.557 104.174v.412l-19.219.412v-.138c1.373-14.14 13.042-26.22 37.478-20.042-11.806.274-18.259 9.884-18.259 19.356Z"/>
  <path fill="#4892CF" d="M284.609 87.288c0 8.512 26.495 6.728 26.495 27.045 0 21.965-25.946 23.612-31.849 23.612-3.157 0-13.728-.961-20.317-3.707l1.647-18.944c6.727 4.118 13.316 7.276 18.945 7.276 5.765 0 7.824-2.746 7.824-4.942 0-10.709-25.67-5.491-25.67-27.732 0-17.57 19.492-23.2 29.652-23.2 9.746 0 14.139 1.098 20.042 2.61l-1.646 18.944s-10.434-6.178-16.887-6.178c-4.941 0-8.236 2.06-8.236 5.216Z"/>
  <path fill="url(#a)" d="M306.711 102.389h-40.772s-13.042-20.317 20.18-20.317h6.727c-4.942 0-8.237 2.06-8.237 5.217 0 6.314 14.552 7 22.102 15.1Z"/>
  <path fill="#4892CF" d="M501.352 67.685h29.516l-1.373 14.826H499.98l-1.098 12.355h19.632l-1.374 14.828h-19.493l-2.472 27.18h-19.768l4.805-54.363 1.373-14.826h19.767Z"/>
  <path fill="url(#a)" d="M480.212 82.512h19.768l-4.805 54.363h-19.768l4.805-54.363Z"/>
  <path fill="#4892CF" d="M573.344 67.685h-18.396l-27.18 69.19h21.004l4.392-12.219h21.278l2.196 12.219h20.592l-14.825-69.19h-9.061ZM558.38 109.83l8.786-24.71 4.53 24.71H558.38Z"/>
  <path fill="url(#b)" d="M574.443 124.657h-21.279l5.217-14.827h13.316l2.746 14.827Z" opacity=".49"/>
  <path fill="#4892CF" d="M661.28 67.685h19.769l-6.178 69.19h-19.768l-21.141-35.145-3.158 35.145h-19.768l6.178-69.19h19.767l21.005 35.145 3.294-35.145Z"/>
  <path fill="url(#c)" d="m658.123 102.829-3.02 34.046-21.141-35.144 3.02-34.046 21.141 35.144Z" opacity=".49"/>
  <path fill="#0A79D0" d="M375.962 24.566c-37.106 9.1-60.33 46.356-52.416 84.084 2.765 13.155 8.778 23.846 19.469 34.617 7.073 7.12 11.427 10.414 17.971 13.594 18.87 9.146 39.168 9.965 58.349 2.35l7.073-2.811 5.334 2.834c9.769 5.185 24.434 6.682 28.938 2.949.921-.772 1.682-2.88 1.682-4.7 0-2.556-1.014-3.963-4.516-6.29a31.951 31.951 0 0 1-7.522-7.534l-3.008-4.539 3.596-5.229a71.334 71.334 0 0 0 11.268-26.747 71.33 71.33 0 0 0-.324-29.022c-5.645-26.22-26.508-47.37-52.832-53.568-8.778-2.074-24.572-2.074-33.062.012Zm10.08 37.416a80.605 80.605 0 0 1 6.221 3.686c1.532 1.094 2.557.784 5.448-1.658 1.959-1.648 6.336-3.617 9.723-4.378 20.368-4.55 37.44 17.256 27.902 35.677-2.535 4.908-39.444 41.565-41.852 41.565-3.225 0-38.822-36.473-41.622-42.624-3.225-7.108-3.052-14.355.472-21.44a24.498 24.498 0 0 1 14.54-12.617 24.492 24.492 0 0 1 19.168 1.789Z"/>
  <defs>
    <linearGradient id="a" x1="121.466" x2="121.466" y1="80.818" y2="104.403" gradientUnits="userSpaceOnUse">
      <stop offset=".142" stop-opacity=".4"/>
      <stop offset=".477" stop-opacity=".21"/>
      <stop offset=".98" stop-opacity="0"/>
    </linearGradient>
    <linearGradient id="b" x1="542.478" x2="579.296" y1="123.656" y2="113.791" gradientUnits="userSpaceOnUse">
      <stop offset=".23" stop-opacity=".8"/>
      <stop offset=".7" stop-opacity="0"/>
    </linearGradient>
    <linearGradient id="c" x1="634.047" x2="658.035" y1="101.232" y2="103.329" gradientUnits="userSpaceOnUse">
      <stop stop-opacity=".8"/>
      <stop offset=".314" stop-opacity=".251"/>
      <stop offset=".49" stop-opacity="0"/>
    </linearGradient>
  </defs>
</svg>